<?xml version="1.0" encoding="UTF-8"?><svg version="1.1" id="Layer_1" xmlns="http://www.w3.org/2000/svg" xmlns:xlink="http://www.w3.org/1999/xlink" x="0px" y="0px" width="47.607px" height="90.647px" viewBox="0 0 47.607 90.647" style="enable-background:new 0 0 47.607 90.647;" xml:space="preserve">
<g>
	<path style="fill:#FFFFFF;" d="M21.64,88.967c-1.392,0-2.52-1.128-2.52-2.52v-0.413c0-1.392,1.128-2.52,2.52-2.52
		s2.52,1.128,2.52,2.52v0.413C24.16,87.839,23.032,88.967,21.64,88.967z"/>
	<path style="fill:#FFFFFF;" d="M21.701,77.808c-1.366,0-2.488-1.092-2.519-2.465c-0.002-0.084-0.183-8.552,0.193-22.095
		c0.212-7.6,5.451-11.598,10.518-15.466c5.221-3.984,10.152-7.748,10.152-15.58c0-8.145-5.445-16.362-17.609-16.362
		c-6.03,0-10.564,2.088-13.479,6.207C5.52,16.907,5.51,22.944,6.27,25.096c0.463,1.313-0.226,2.752-1.538,3.215
		c-1.313,0.462-2.753-0.226-3.215-1.538C0.04,22.59,0.704,14.986,4.843,9.136C7.534,5.333,12.77,0.8,22.437,0.8
		c15.562,0,22.65,11.095,22.65,21.403c0,10.326-6.447,15.247-12.135,19.588c-4.504,3.437-8.393,6.405-8.538,11.597
		c-0.372,13.404-0.194,21.761-0.193,21.844c0.031,1.392-1.072,2.545-2.464,2.575C21.739,77.808,21.72,77.808,21.701,77.808z"/>
	<path style="fill:#FF6338;" d="M24.222,79.489c-1.366,0-2.488-1.092-2.519-2.465c-0.002-0.084-0.183-8.552,0.193-22.095
		c0.212-7.6,5.451-11.598,10.518-15.466c5.221-3.984,10.152-7.748,10.152-15.58c0-8.145-5.445-16.362-17.609-16.362
		c-6.03,0-10.564,2.088-13.479,6.207C8.04,18.588,8.031,24.625,8.79,26.777c0.463,1.313-0.226,2.752-1.538,3.215
		c-1.313,0.462-2.753-0.226-3.215-1.538C2.561,24.27,3.224,16.666,7.364,10.816c2.691-3.803,7.927-8.336,17.594-8.336
		c15.562,0,22.65,11.095,22.65,21.403c0,10.326-6.447,15.247-12.135,19.588c-4.504,3.437-8.393,6.405-8.538,11.597
		c-0.372,13.404-0.194,21.761-0.193,21.844c0.031,1.392-1.072,2.545-2.464,2.575C24.259,79.489,24.24,79.489,24.222,79.489z"/>
	<path style="fill:#FF6338;" d="M24.16,90.647c-1.392,0-2.52-1.128-2.52-2.52v-0.413c0-1.392,1.128-2.52,2.52-2.52
		c1.392,0,2.52,1.128,2.52,2.52v0.413C26.68,89.519,25.552,90.647,24.16,90.647z"/>
	<path style="fill:none;stroke:#333333;stroke-width:1.6;stroke-linecap:round;stroke-miterlimit:10;" d="M21.701,77.808
		c-1.366,0-2.488-1.092-2.519-2.465c-0.002-0.084-0.183-8.552,0.193-22.095c0.212-7.6,5.451-11.598,10.518-15.466
		c5.221-3.984,10.152-7.748,10.152-15.58c0-8.145-5.445-16.362-17.609-16.362c-6.03,0-10.564,2.088-13.479,6.207
		C5.52,16.907,5.51,22.944,6.27,25.096c0.463,1.313-0.226,2.752-1.538,3.215c-1.313,0.462-2.753-0.226-3.215-1.538
		C0.04,22.59,0.704,14.986,4.843,9.136C7.534,5.333,12.77,0.8,22.437,0.8c15.562,0,22.65,11.095,22.65,21.403
		c0,10.326-6.447,15.247-12.135,19.588c-4.504,3.437-8.393,6.405-8.538,11.597c-0.372,13.404-0.194,21.761-0.193,21.844
		c0.031,1.392-1.072,2.545-2.464,2.575C21.739,77.808,21.72,77.808,21.701,77.808z"/>
	<path style="fill:none;stroke:#333333;stroke-width:1.6;stroke-linecap:round;stroke-miterlimit:10;" d="M21.64,88.967
		c-1.392,0-2.52-1.128-2.52-2.52v-0.413c0-1.392,1.128-2.52,2.52-2.52s2.52,1.128,2.52,2.52v0.413
		C24.16,87.839,23.032,88.967,21.64,88.967z"/>
</g>
</svg>